# xmcd CD database file
#
# Track frame offsets:
#	150
#	28106
#	49960
#	78108
#	113462
#	138154
#	162720
#	195195
#	227971
#	257645
#	277735
#
# Disc length: 3887 seconds
#
# Revision: 0
# Processed by: cddbd v1.5.1PL0 Copyright (c) Steve Scherf et al.
# Submitted via: CDex 1.51
#
DISCID=870f2d0b
DTITLE=Gene Ludwig - Hands On
DYEAR=2003
DGENRE=Jazz
TTITLE0=Louie And Jazz
TTITLE1=Unit 7
TTITLE2=Groove Yard
TTITLE3=Willow Weep For Me
TTITLE4=Groove Merchant
TTITLE5=Groovy Samba
TTITLE6=Baby Don't You Go Away Mad
TTITLE7=Pete Kelly's Blues
TTITLE8=Layin' Back
TTITLE9=Have You Met Miss Jones
TTITLE10=Spiritual
EXTD=YEAR: 2003
EXTT0=
EXTT1=
EXTT2=
EXTT3=
EXTT4=
EXTT5=
EXTT6=
EXTT7=
EXTT8=
EXTT9=
EXTT10=
PLAYORDER=
